<svg width="19" height="21" viewBox="0 0 19 21" fill="none" xmlns="http://www.w3.org/2000/svg">
<path d="M7.10819 18.3943V15.6342C7.10818 14.9322 7.68051 14.3617 8.38961 14.357H10.9871C11.6996 14.357 12.2772 14.9288 12.2772 15.6342V15.6342V18.4028C12.277 18.9989 12.7575 19.486 13.3594 19.5H15.0911C16.8173 19.5 18.2167 18.1146 18.2167 16.4056V16.4056V8.55405C18.2075 7.88174 17.8886 7.25041 17.3509 6.83973L11.4286 2.11677C10.3911 1.29441 8.91628 1.29441 7.87878 2.11677L1.98252 6.8483C1.44273 7.25732 1.12335 7.8897 1.1167 8.56262V16.4056C1.1167 18.1146 2.51609 19.5 4.24232 19.5H5.97397C6.59082 19.5 7.09088 19.0049 7.09088 18.3943V18.3943" stroke="#6B7280" stroke-width="1.5" stroke-linecap="round" stroke-linejoin="round"/>
</svg>
