<svg width="19" height="21" viewBox="0 0 19 21" fill="none" xmlns="http://www.w3.org/2000/svg">
<path d="M7.10807 18.3943V15.6342C7.10806 14.9322 7.68038 14.3617 8.38949 14.357H10.987C11.6994 14.357 12.277 14.9288 12.277 15.6342V15.6342V18.4028C12.2769 18.9989 12.7574 19.486 13.3593 19.5H15.091C16.8172 19.5 18.2166 18.1146 18.2166 16.4056V16.4056V8.55405C18.2074 7.88174 17.8885 7.25041 17.3508 6.83973L11.4285 2.11677C10.391 1.29441 8.91616 1.29441 7.87865 2.11677L1.9824 6.8483C1.44261 7.25732 1.12323 7.8897 1.11658 8.56262V16.4056C1.11658 18.1146 2.51597 19.5 4.2422 19.5H5.97384C6.5907 19.5 7.09075 19.0049 7.09075 18.3943V18.3943" stroke="white" stroke-width="1.5" stroke-linecap="round" stroke-linejoin="round"/>
</svg>
