<svg width="20" height="21" viewBox="0 0 20 21" fill="none" xmlns="http://www.w3.org/2000/svg">
<path fill-rule="evenodd" clip-rule="evenodd" d="M18.9679 6.23445L18.3455 5.15436C17.8189 4.24044 16.652 3.92516 15.7368 4.44956V4.44956C15.3012 4.70618 14.7813 4.77899 14.292 4.65193C13.8026 4.52486 13.3839 4.20836 13.1281 3.77221C12.9636 3.49499 12.8752 3.17923 12.8718 2.85688V2.85688C12.8866 2.34006 12.6917 1.83924 12.3313 1.46851C11.9709 1.09778 11.4758 0.888703 10.9588 0.888916H9.70475C9.19822 0.88891 8.71257 1.09075 8.35525 1.44978C7.99794 1.80882 7.79843 2.29543 7.80086 2.80196V2.80196C7.78585 3.84777 6.93373 4.68765 5.88782 4.68754C5.56547 4.6842 5.24971 4.59578 4.97249 4.43125V4.43125C4.05732 3.90685 2.89037 4.22213 2.36379 5.13606L1.6956 6.23445C1.16967 7.14723 1.48065 8.31345 2.39125 8.84315V8.84315C2.98316 9.18488 3.34779 9.81643 3.34779 10.4999C3.34779 11.1834 2.98316 11.8149 2.39125 12.1567V12.1567C1.48181 12.6828 1.17048 13.8462 1.6956 14.7562V14.7562L2.32718 15.8454C2.5739 16.2906 2.98786 16.6191 3.47745 16.7583C3.96704 16.8974 4.49189 16.8357 4.93588 16.5869V16.5869C5.37233 16.3322 5.89244 16.2624 6.38059 16.393C6.86875 16.5237 7.28449 16.8439 7.53542 17.2825C7.69995 17.5597 7.78836 17.8755 7.79171 18.1978V18.1978C7.79171 19.2544 8.64821 20.1109 9.70475 20.1109H10.9588C12.0117 20.1109 12.8668 19.26 12.8718 18.207V18.207C12.8694 17.6989 13.0701 17.2109 13.4294 16.8516C13.7887 16.4923 14.2767 16.2915 14.7848 16.294C15.1064 16.3026 15.4209 16.3906 15.7002 16.5502V16.5502C16.613 17.0762 17.7792 16.7652 18.3089 15.8546V15.8546L18.9679 14.7562C19.223 14.3183 19.293 13.7968 19.1625 13.3072C19.0319 12.8176 18.7115 12.4002 18.2723 12.1475V12.1475C17.833 11.8948 17.5126 11.4774 17.3821 10.9878C17.2515 10.4981 17.3215 9.97666 17.5766 9.5388C17.7425 9.24918 17.9826 9.00904 18.2723 8.84315V8.84315C19.1774 8.31373 19.4877 7.15433 18.9679 6.24361V6.24361V6.23445Z" stroke="#6B7280" stroke-width="1.5" stroke-linecap="round" stroke-linejoin="round"/>
<circle cx="10.3364" cy="10.4999" r="2.63616" stroke="#6B7280" stroke-width="1.5" stroke-linecap="round" stroke-linejoin="round"/>
</svg>
