<svg width="22" height="17" viewBox="0 0 22 17" fill="none" xmlns="http://www.w3.org/2000/svg">
<path d="M17.0015 7.50122C18.3965 7.30522 19.4705 6.10922 19.4735 4.66022C19.4735 3.23222 18.4325 2.04822 17.0675 1.82422" stroke="#6B7280" stroke-width="1.5" stroke-linecap="round" stroke-linejoin="round"/>
<path d="M18.8423 10.855C20.1933 11.057 21.1363 11.53 21.1363 12.505C21.1363 13.176 20.6923 13.612 19.9743 13.886" stroke="#6B7280" stroke-width="1.5" stroke-linecap="round" stroke-linejoin="round"/>
<path fill-rule="evenodd" clip-rule="evenodd" d="M11.0005 11.2683C7.7865 11.2683 5.0415 11.7553 5.0415 13.7003C5.0415 15.6443 7.7695 16.1453 11.0005 16.1453C14.2145 16.1453 16.9585 15.6633 16.9585 13.7173C16.9585 11.7713 14.2315 11.2683 11.0005 11.2683Z" stroke="#6B7280" stroke-width="1.5" stroke-linecap="round" stroke-linejoin="round"/>
<path fill-rule="evenodd" clip-rule="evenodd" d="M11.0004 8.49249C13.1094 8.49249 14.8194 6.78349 14.8194 4.67349C14.8194 2.56449 13.1094 0.854492 11.0004 0.854492C8.89142 0.854492 7.18142 2.56449 7.18142 4.67349C7.17342 6.77549 8.87042 8.48549 10.9724 8.49249H11.0004Z" stroke="#6B7280" stroke-width="1.5" stroke-linecap="round" stroke-linejoin="round"/>
<path d="M4.99849 7.50122C3.60249 7.30522 2.52949 6.10922 2.52649 4.66022C2.52649 3.23222 3.56749 2.04822 4.93249 1.82422" stroke="#6B7280" stroke-width="1.5" stroke-linecap="round" stroke-linejoin="round"/>
<path d="M3.15765 10.855C1.80665 11.057 0.863647 11.53 0.863647 12.505C0.863647 13.176 1.30765 13.612 2.02565 13.886" stroke="#6B7280" stroke-width="1.5" stroke-linecap="round" stroke-linejoin="round"/>
</svg>
