<svg width="348" height="29" viewBox="0 0 348 29" fill="none" xmlns="http://www.w3.org/2000/svg">
<g opacity="0.3">
<path d="M12.2695 11.4004V10.2695H19.0312V11.4004H16.3125V19H15V11.4004H12.2695ZM21.791 19.1348C21.1504 19.1348 20.5957 18.9961 20.127 18.7188C19.6582 18.4414 19.2969 18.0508 19.043 17.5469C18.793 17.0391 18.668 16.4473 18.668 15.7715C18.668 15.0996 18.791 14.5078 19.0371 13.9961C19.2871 13.4844 19.6367 13.0859 20.0859 12.8008C20.5391 12.5117 21.0703 12.3672 21.6797 12.3672C22.0508 12.3672 22.4102 12.4277 22.7578 12.5488C23.1055 12.6699 23.418 12.8613 23.6953 13.123C23.9727 13.3848 24.1914 13.7246 24.3516 14.1426C24.5156 14.5605 24.5977 15.0645 24.5977 15.6543V16.1113H19.3887V15.1562H23.9414L23.3496 15.4727C23.3496 15.0703 23.2871 14.7148 23.1621 14.4062C23.0371 14.0977 22.8496 13.8574 22.5996 13.6855C22.3535 13.5098 22.0469 13.4219 21.6797 13.4219C21.3125 13.4219 20.998 13.5098 20.7363 13.6855C20.4785 13.8613 20.2812 14.0938 20.1445 14.3828C20.0078 14.6719 19.9395 14.9883 19.9395 15.332V15.9824C19.9395 16.4316 20.0176 16.8125 20.1738 17.125C20.3301 17.4375 20.5469 17.6758 20.8242 17.8398C21.1055 18.0039 21.4316 18.0859 21.8027 18.0859C22.0449 18.0859 22.2637 18.0508 22.459 17.9805C22.6582 17.9102 22.8301 17.8047 22.9746 17.6641C23.1191 17.5234 23.2285 17.3496 23.3027 17.1426L24.5098 17.3711C24.4121 17.7227 24.2402 18.0312 23.9941 18.2969C23.748 18.5625 23.4375 18.7695 23.0625 18.918C22.6914 19.0625 22.2676 19.1348 21.791 19.1348ZM25.4883 19V12.4492H26.7129V13.498H26.7832C26.9043 13.1465 27.1152 12.8691 27.416 12.666C27.7207 12.459 28.0645 12.3555 28.4473 12.3555C28.5254 12.3555 28.6172 12.3594 28.7227 12.3672C28.832 12.3711 28.9199 12.377 28.9863 12.3848V13.6035C28.9355 13.5879 28.8438 13.5723 28.7109 13.5566C28.582 13.541 28.4512 13.5332 28.3184 13.5332C28.0176 13.5332 27.748 13.5977 27.5098 13.7266C27.2754 13.8516 27.0898 14.0254 26.9531 14.248C26.8203 14.4668 26.7539 14.7207 26.7539 15.0098V19H25.4883ZM29.6016 19V12.4492H30.8145V13.5273H30.9023C31.0391 13.1641 31.2617 12.8809 31.5703 12.6777C31.8828 12.4707 32.2539 12.3672 32.6836 12.3672C33.1211 12.3672 33.4863 12.4707 33.7793 12.6777C34.0762 12.8809 34.2969 13.1641 34.4414 13.5273H34.5117C34.668 13.1719 34.916 12.8906 35.2559 12.6836C35.5957 12.4727 36 12.3672 36.4688 12.3672C37.0625 12.3672 37.5488 12.5547 37.9277 12.9297C38.3066 13.3008 38.4961 13.8613 38.4961 14.6113V19H37.2188V14.7285C37.2188 14.2832 37.0977 13.9629 36.8555 13.7676C36.6133 13.5684 36.3242 13.4688 35.9883 13.4688C35.5742 13.4688 35.252 13.5977 35.0215 13.8555C34.7949 14.1094 34.6816 14.4316 34.6816 14.8223V19H33.4043V14.6465C33.4043 14.291 33.2949 14.0059 33.0762 13.791C32.8574 13.5762 32.5703 13.4688 32.2148 13.4688C31.9727 13.4688 31.748 13.5332 31.541 13.6621C31.3379 13.7871 31.1738 13.9629 31.0488 14.1895C30.9277 14.4121 30.8672 14.6699 30.8672 14.9629V19H29.6016ZM44.6133 14.0547L43.459 14.2539C43.3848 14.0352 43.2461 13.834 43.043 13.6504C42.8438 13.4668 42.5449 13.375 42.1465 13.375C41.7871 13.375 41.4863 13.457 41.2441 13.6211C41.0059 13.7812 40.8867 13.9863 40.8867 14.2363C40.8867 14.4551 40.9668 14.6328 41.127 14.7695C41.291 14.9062 41.5508 15.0156 41.9062 15.0977L42.9551 15.332C43.5527 15.4688 44 15.6836 44.2969 15.9766C44.5938 16.2695 44.7422 16.6445 44.7422 17.1016C44.7422 17.4961 44.6289 17.8477 44.4023 18.1562C44.1758 18.4609 43.8613 18.7012 43.459 18.877C43.0566 19.0488 42.5918 19.1348 42.0645 19.1348C41.3301 19.1348 40.7324 18.9766 40.2715 18.6602C39.8105 18.3438 39.5273 17.8984 39.4219 17.3242L40.6465 17.1367C40.7246 17.457 40.8828 17.6992 41.1211 17.8633C41.3633 18.0273 41.6758 18.1094 42.0586 18.1094C42.4727 18.1094 42.8047 18.0215 43.0547 17.8457C43.3086 17.6699 43.4355 17.457 43.4355 17.207C43.4355 16.793 43.127 16.5137 42.5098 16.3691L41.4023 16.123C40.7891 15.9824 40.3359 15.7617 40.043 15.4609C39.7539 15.1562 39.6094 14.7734 39.6094 14.3125C39.6094 13.9258 39.7168 13.5859 39.9316 13.293C40.1504 13 40.4492 12.7734 40.8281 12.6133C41.2109 12.4492 41.6465 12.3672 42.1348 12.3672C42.8457 12.3672 43.4023 12.5215 43.8047 12.8301C44.2109 13.1387 44.4805 13.5469 44.6133 14.0547ZM51.0527 19.1348C50.4395 19.1348 49.9023 18.9941 49.4414 18.7129C48.9844 18.4316 48.6289 18.0371 48.375 17.5293C48.125 17.0215 48 16.4316 48 15.7598C48 15.0801 48.125 14.4863 48.375 13.9785C48.6289 13.4668 48.9844 13.0703 49.4414 12.7891C49.9023 12.5078 50.4395 12.3672 51.0527 12.3672C51.6699 12.3672 52.207 12.5078 52.6641 12.7891C53.1211 13.0703 53.4766 13.4668 53.7305 13.9785C53.9844 14.4863 54.1113 15.0801 54.1113 15.7598C54.1113 16.4316 53.9844 17.0215 53.7305 17.5293C53.4766 18.0371 53.1211 18.4316 52.6641 18.7129C52.207 18.9941 51.6699 19.1348 51.0527 19.1348ZM51.0527 18.0625C51.4551 18.0625 51.7871 17.957 52.0488 17.7461C52.3105 17.5352 52.5039 17.2559 52.6289 16.9082C52.7578 16.5566 52.8223 16.1738 52.8223 15.7598C52.8223 15.3379 52.7578 14.9512 52.6289 14.5996C52.5039 14.248 52.3105 13.9668 52.0488 13.7559C51.7871 13.5449 51.4551 13.4395 51.0527 13.4395C50.6543 13.4395 50.3242 13.5449 50.0625 13.7559C49.8047 13.9668 49.6113 14.248 49.4824 14.5996C49.3535 14.9512 49.2891 15.3379 49.2891 15.7598C49.2891 16.1738 49.3535 16.5566 49.4824 16.9082C49.6113 17.2559 49.8047 17.5352 50.0625 17.7461C50.3242 17.957 50.6543 18.0625 51.0527 18.0625ZM58.1484 12.4492V13.4746H54.4512V12.4492H58.1484ZM55.459 19V11.6875C55.459 11.2812 55.5488 10.9434 55.7285 10.6738C55.9121 10.4004 56.1504 10.1973 56.4434 10.0645C56.7402 9.92773 57.0586 9.85938 57.3984 9.85938C57.6602 9.85938 57.8828 9.88086 58.0664 9.92383C58.25 9.9668 58.3848 10.0039 58.4707 10.0352L58.166 11.0664C58.1074 11.0469 58.0312 11.0254 57.9375 11.002C57.8477 10.9785 57.7344 10.9668 57.5977 10.9668C57.2891 10.9668 57.0664 11.0449 56.9297 11.2012C56.793 11.3535 56.7246 11.5762 56.7246 11.8691V19H55.459ZM67.3418 10.2695H68.6602V16.0117C68.6602 16.6211 68.5156 17.1621 68.2266 17.6348C67.9414 18.1035 67.5391 18.4727 67.0195 18.7422C66.5 19.0078 65.8906 19.1406 65.1914 19.1406C64.4961 19.1406 63.8867 19.0078 63.3633 18.7422C62.8438 18.4727 62.4395 18.1035 62.1504 17.6348C61.8652 17.1621 61.7227 16.6211 61.7227 16.0117V10.2695H63.041V15.9062C63.041 16.3008 63.127 16.6523 63.2988 16.9609C63.4746 17.2656 63.7227 17.5059 64.043 17.6816C64.3672 17.8574 64.75 17.9453 65.1914 17.9453C65.6367 17.9453 66.0195 17.8574 66.3398 17.6816C66.6602 17.5059 66.9062 17.2656 67.0781 16.9609C67.2539 16.6523 67.3418 16.3008 67.3418 15.9062V10.2695ZM74.8711 14.0547L73.7168 14.2539C73.6426 14.0352 73.5039 13.834 73.3008 13.6504C73.1016 13.4668 72.8027 13.375 72.4043 13.375C72.0449 13.375 71.7441 13.457 71.502 13.6211C71.2637 13.7812 71.1445 13.9863 71.1445 14.2363C71.1445 14.4551 71.2246 14.6328 71.3848 14.7695C71.5488 14.9062 71.8086 15.0156 72.1641 15.0977L73.2129 15.332C73.8105 15.4688 74.2578 15.6836 74.5547 15.9766C74.8516 16.2695 75 16.6445 75 17.1016C75 17.4961 74.8867 17.8477 74.6602 18.1562C74.4336 18.4609 74.1191 18.7012 73.7168 18.877C73.3145 19.0488 72.8496 19.1348 72.3223 19.1348C71.5879 19.1348 70.9902 18.9766 70.5293 18.6602C70.0684 18.3438 69.7852 17.8984 69.6797 17.3242L70.9043 17.1367C70.9824 17.457 71.1406 17.6992 71.3789 17.8633C71.6211 18.0273 71.9336 18.1094 72.3164 18.1094C72.7305 18.1094 73.0625 18.0215 73.3125 17.8457C73.5664 17.6699 73.6934 17.457 73.6934 17.207C73.6934 16.793 73.3848 16.5137 72.7676 16.3691L71.6602 16.123C71.0469 15.9824 70.5938 15.7617 70.3008 15.4609C70.0117 15.1562 69.8672 14.7734 69.8672 14.3125C69.8672 13.9258 69.9746 13.5859 70.1895 13.293C70.4082 13 70.707 12.7734 71.0859 12.6133C71.4688 12.4492 71.9043 12.3672 72.3926 12.3672C73.1035 12.3672 73.6602 12.5215 74.0625 12.8301C74.4688 13.1387 74.7383 13.5469 74.8711 14.0547ZM78.709 19.1348C78.0684 19.1348 77.5137 18.9961 77.0449 18.7188C76.5762 18.4414 76.2148 18.0508 75.9609 17.5469C75.7109 17.0391 75.5859 16.4473 75.5859 15.7715C75.5859 15.0996 75.709 14.5078 75.9551 13.9961C76.2051 13.4844 76.5547 13.0859 77.0039 12.8008C77.457 12.5117 77.9883 12.3672 78.5977 12.3672C78.9688 12.3672 79.3281 12.4277 79.6758 12.5488C80.0234 12.6699 80.3359 12.8613 80.6133 13.123C80.8906 13.3848 81.1094 13.7246 81.2695 14.1426C81.4336 14.5605 81.5156 15.0645 81.5156 15.6543V16.1113H76.3066V15.1562H80.8594L80.2676 15.4727C80.2676 15.0703 80.2051 14.7148 80.0801 14.4062C79.9551 14.0977 79.7676 13.8574 79.5176 13.6855C79.2715 13.5098 78.9648 13.4219 78.5977 13.4219C78.2305 13.4219 77.916 13.5098 77.6543 13.6855C77.3965 13.8613 77.1992 14.0938 77.0625 14.3828C76.9258 14.6719 76.8574 14.9883 76.8574 15.332V15.9824C76.8574 16.4316 76.9355 16.8125 77.0918 17.125C77.248 17.4375 77.4648 17.6758 77.7422 17.8398C78.0234 18.0039 78.3496 18.0859 78.7207 18.0859C78.9629 18.0859 79.1816 18.0508 79.377 17.9805C79.5762 17.9102 79.748 17.8047 79.8926 17.6641C80.0371 17.5234 80.1465 17.3496 80.2207 17.1426L81.4277 17.3711C81.3301 17.7227 81.1582 18.0312 80.9121 18.2969C80.666 18.5625 80.3555 18.7695 79.9805 18.918C79.6094 19.0625 79.1855 19.1348 78.709 19.1348Z" fill="#1B191B"/>
<path d="M12 21.3848H81.7969V22.2051H12V21.3848Z" fill="#1B191B"/>
</g>
<g opacity="0.3">
<path d="M257.322 10.2695H258.641V16.0117C258.641 16.6211 258.496 17.1621 258.207 17.6348C257.922 18.1035 257.52 18.4727 257 18.7422C256.48 19.0078 255.871 19.1406 255.172 19.1406C254.477 19.1406 253.867 19.0078 253.344 18.7422C252.824 18.4727 252.42 18.1035 252.131 17.6348C251.846 17.1621 251.703 16.6211 251.703 16.0117V10.2695H253.021V15.9062C253.021 16.3008 253.107 16.6523 253.279 16.9609C253.455 17.2656 253.703 17.5059 254.023 17.6816C254.348 17.8574 254.73 17.9453 255.172 17.9453C255.617 17.9453 256 17.8574 256.32 17.6816C256.641 17.5059 256.887 17.2656 257.059 16.9609C257.234 16.6523 257.322 16.3008 257.322 15.9062V10.2695ZM264.852 14.0547L263.697 14.2539C263.623 14.0352 263.484 13.834 263.281 13.6504C263.082 13.4668 262.783 13.375 262.385 13.375C262.025 13.375 261.725 13.457 261.482 13.6211C261.244 13.7812 261.125 13.9863 261.125 14.2363C261.125 14.4551 261.205 14.6328 261.365 14.7695C261.529 14.9062 261.789 15.0156 262.145 15.0977L263.193 15.332C263.791 15.4688 264.238 15.6836 264.535 15.9766C264.832 16.2695 264.98 16.6445 264.98 17.1016C264.98 17.4961 264.867 17.8477 264.641 18.1562C264.414 18.4609 264.1 18.7012 263.697 18.877C263.295 19.0488 262.83 19.1348 262.303 19.1348C261.568 19.1348 260.971 18.9766 260.51 18.6602C260.049 18.3438 259.766 17.8984 259.66 17.3242L260.885 17.1367C260.963 17.457 261.121 17.6992 261.359 17.8633C261.602 18.0273 261.914 18.1094 262.297 18.1094C262.711 18.1094 263.043 18.0215 263.293 17.8457C263.547 17.6699 263.674 17.457 263.674 17.207C263.674 16.793 263.365 16.5137 262.748 16.3691L261.641 16.123C261.027 15.9824 260.574 15.7617 260.281 15.4609C259.992 15.1562 259.848 14.7734 259.848 14.3125C259.848 13.9258 259.955 13.5859 260.17 13.293C260.389 13 260.688 12.7734 261.066 12.6133C261.449 12.4492 261.885 12.3672 262.373 12.3672C263.084 12.3672 263.641 12.5215 264.043 12.8301C264.449 13.1387 264.719 13.5469 264.852 14.0547ZM268.689 19.1348C268.049 19.1348 267.494 18.9961 267.025 18.7188C266.557 18.4414 266.195 18.0508 265.941 17.5469C265.691 17.0391 265.566 16.4473 265.566 15.7715C265.566 15.0996 265.689 14.5078 265.936 13.9961C266.186 13.4844 266.535 13.0859 266.984 12.8008C267.438 12.5117 267.969 12.3672 268.578 12.3672C268.949 12.3672 269.309 12.4277 269.656 12.5488C270.004 12.6699 270.316 12.8613 270.594 13.123C270.871 13.3848 271.09 13.7246 271.25 14.1426C271.414 14.5605 271.496 15.0645 271.496 15.6543V16.1113H266.287V15.1562H270.84L270.248 15.4727C270.248 15.0703 270.186 14.7148 270.061 14.4062C269.936 14.0977 269.748 13.8574 269.498 13.6855C269.252 13.5098 268.945 13.4219 268.578 13.4219C268.211 13.4219 267.896 13.5098 267.635 13.6855C267.377 13.8613 267.18 14.0938 267.043 14.3828C266.906 14.6719 266.838 14.9883 266.838 15.332V15.9824C266.838 16.4316 266.916 16.8125 267.072 17.125C267.229 17.4375 267.445 17.6758 267.723 17.8398C268.004 18.0039 268.33 18.0859 268.701 18.0859C268.943 18.0859 269.162 18.0508 269.357 17.9805C269.557 17.9102 269.729 17.8047 269.873 17.6641C270.018 17.5234 270.127 17.3496 270.201 17.1426L271.408 17.3711C271.311 17.7227 271.139 18.0312 270.893 18.2969C270.646 18.5625 270.336 18.7695 269.961 18.918C269.59 19.0625 269.166 19.1348 268.689 19.1348ZM272.387 19V12.4492H273.611V13.498H273.682C273.803 13.1465 274.014 12.8691 274.314 12.666C274.619 12.459 274.963 12.3555 275.346 12.3555C275.424 12.3555 275.516 12.3594 275.621 12.3672C275.73 12.3711 275.818 12.377 275.885 12.3848V13.6035C275.834 13.5879 275.742 13.5723 275.609 13.5566C275.48 13.541 275.35 13.5332 275.217 13.5332C274.916 13.5332 274.646 13.5977 274.408 13.7266C274.174 13.8516 273.988 14.0254 273.852 14.248C273.719 14.4668 273.652 14.7207 273.652 15.0098V19H272.387ZM281.07 19.1406C280.656 19.1406 280.281 19.0645 279.945 18.9121C279.609 18.7559 279.344 18.5293 279.148 18.2324C278.953 17.9355 278.855 17.5742 278.855 17.1484C278.855 16.7773 278.926 16.4746 279.066 16.2402C279.211 16.002 279.404 15.8125 279.646 15.6719C279.889 15.5312 280.158 15.4258 280.455 15.3555C280.752 15.2852 281.057 15.2305 281.369 15.1914C281.764 15.1484 282.082 15.1113 282.324 15.0801C282.566 15.0488 282.742 15 282.852 14.9336C282.965 14.8633 283.021 14.752 283.021 14.5996V14.5703C283.021 14.1992 282.916 13.9121 282.705 13.709C282.498 13.5059 282.189 13.4043 281.779 13.4043C281.354 13.4043 281.016 13.498 280.766 13.6855C280.52 13.8691 280.35 14.0781 280.256 14.3125L279.055 14.0371C279.199 13.6387 279.408 13.3184 279.682 13.0762C279.959 12.8301 280.275 12.6504 280.631 12.5371C280.99 12.4238 281.365 12.3672 281.756 12.3672C282.018 12.3672 282.295 12.3984 282.588 12.4609C282.881 12.5195 283.156 12.6309 283.414 12.7949C283.676 12.9551 283.889 13.1855 284.053 13.4863C284.217 13.7871 284.299 14.1758 284.299 14.6523V19H283.051V18.1035H283.004C282.926 18.2637 282.803 18.4238 282.635 18.584C282.471 18.7441 282.26 18.877 282.002 18.9824C281.744 19.0879 281.434 19.1406 281.07 19.1406ZM281.346 18.1211C281.701 18.1211 282.004 18.0527 282.254 17.916C282.504 17.7754 282.695 17.5918 282.828 17.3652C282.961 17.1387 283.027 16.8984 283.027 16.6445V15.7949C282.98 15.8379 282.893 15.8789 282.764 15.918C282.635 15.957 282.488 15.9902 282.324 16.0176C282.16 16.0449 282 16.0703 281.844 16.0938C281.688 16.1133 281.557 16.1289 281.451 16.1406C281.205 16.1758 280.98 16.2305 280.777 16.3047C280.574 16.375 280.41 16.4805 280.285 16.6211C280.164 16.7578 280.104 16.9395 280.104 17.166C280.104 17.4824 280.221 17.7207 280.455 17.8809C280.689 18.041 280.986 18.1211 281.346 18.1211ZM288.254 21.5898C287.473 21.5898 286.857 21.4434 286.408 21.1504C285.959 20.8574 285.648 20.5098 285.477 20.1074L286.566 19.6562C286.645 19.7812 286.748 19.9141 286.877 20.0547C287.01 20.1953 287.188 20.3145 287.41 20.4121C287.633 20.5098 287.92 20.5586 288.271 20.5586C288.752 20.5586 289.15 20.4414 289.467 20.207C289.783 19.9766 289.941 19.6055 289.941 19.0938V17.8105H289.854C289.783 17.9473 289.676 18.1016 289.531 18.2734C289.387 18.4414 289.189 18.5879 288.939 18.7129C288.689 18.8379 288.363 18.9004 287.961 18.9004C287.445 18.9004 286.98 18.7793 286.566 18.5371C286.156 18.291 285.828 17.9316 285.582 17.459C285.34 16.9824 285.219 16.3965 285.219 15.7012C285.219 15.0059 285.338 14.4102 285.576 13.9141C285.818 13.4141 286.146 13.0312 286.561 12.7656C286.975 12.5 287.445 12.3672 287.973 12.3672C288.379 12.3672 288.707 12.4355 288.957 12.5723C289.211 12.7051 289.408 12.8613 289.549 13.041C289.689 13.2207 289.799 13.3789 289.877 13.5156H289.971V12.4492H291.207V19.1465C291.207 19.709 291.076 20.1699 290.814 20.5293C290.557 20.8887 290.205 21.1543 289.76 21.3262C289.314 21.502 288.812 21.5898 288.254 21.5898ZM288.242 17.8398C288.793 17.8398 289.215 17.6504 289.508 17.2715C289.805 16.8887 289.953 16.3594 289.953 15.6836C289.953 15.2422 289.889 14.8555 289.76 14.5234C289.631 14.1875 289.439 13.9258 289.186 13.7383C288.932 13.5469 288.617 13.4512 288.242 13.4512C287.859 13.4512 287.539 13.5508 287.281 13.75C287.027 13.9453 286.836 14.2129 286.707 14.5527C286.578 14.8887 286.514 15.2656 286.514 15.6836C286.514 16.1094 286.578 16.4863 286.707 16.8145C286.836 17.1387 287.029 17.3906 287.287 17.5703C287.549 17.75 287.867 17.8398 288.242 17.8398ZM292.426 19V12.4492H293.65V13.498H293.721C293.842 13.1465 294.053 12.8691 294.354 12.666C294.658 12.459 295.002 12.3555 295.385 12.3555C295.463 12.3555 295.555 12.3594 295.66 12.3672C295.77 12.3711 295.857 12.377 295.924 12.3848V13.6035C295.873 13.5879 295.781 13.5723 295.648 13.5566C295.52 13.541 295.389 13.5332 295.256 13.5332C294.955 13.5332 294.686 13.5977 294.447 13.7266C294.213 13.8516 294.027 14.0254 293.891 14.248C293.758 14.4668 293.691 14.7207 293.691 15.0098V19H292.426ZM299.123 19.1348C298.482 19.1348 297.928 18.9961 297.459 18.7188C296.99 18.4414 296.629 18.0508 296.375 17.5469C296.125 17.0391 296 16.4473 296 15.7715C296 15.0996 296.123 14.5078 296.369 13.9961C296.619 13.4844 296.969 13.0859 297.418 12.8008C297.871 12.5117 298.402 12.3672 299.012 12.3672C299.383 12.3672 299.742 12.4277 300.09 12.5488C300.438 12.6699 300.75 12.8613 301.027 13.123C301.305 13.3848 301.523 13.7246 301.684 14.1426C301.848 14.5605 301.93 15.0645 301.93 15.6543V16.1113H296.721V15.1562H301.273L300.682 15.4727C300.682 15.0703 300.619 14.7148 300.494 14.4062C300.369 14.0977 300.182 13.8574 299.932 13.6855C299.686 13.5098 299.379 13.4219 299.012 13.4219C298.645 13.4219 298.33 13.5098 298.068 13.6855C297.811 13.8613 297.613 14.0938 297.477 14.3828C297.34 14.6719 297.271 14.9883 297.271 15.332V15.9824C297.271 16.4316 297.35 16.8125 297.506 17.125C297.662 17.4375 297.879 17.6758 298.156 17.8398C298.438 18.0039 298.764 18.0859 299.135 18.0859C299.377 18.0859 299.596 18.0508 299.791 17.9805C299.99 17.9102 300.162 17.8047 300.307 17.6641C300.451 17.5234 300.561 17.3496 300.635 17.1426L301.842 17.3711C301.744 17.7227 301.572 18.0312 301.326 18.2969C301.08 18.5625 300.77 18.7695 300.395 18.918C300.023 19.0625 299.6 19.1348 299.123 19.1348ZM305.639 19.1348C304.998 19.1348 304.443 18.9961 303.975 18.7188C303.506 18.4414 303.145 18.0508 302.891 17.5469C302.641 17.0391 302.516 16.4473 302.516 15.7715C302.516 15.0996 302.639 14.5078 302.885 13.9961C303.135 13.4844 303.484 13.0859 303.934 12.8008C304.387 12.5117 304.918 12.3672 305.527 12.3672C305.898 12.3672 306.258 12.4277 306.605 12.5488C306.953 12.6699 307.266 12.8613 307.543 13.123C307.82 13.3848 308.039 13.7246 308.199 14.1426C308.363 14.5605 308.445 15.0645 308.445 15.6543V16.1113H303.236V15.1562H307.789L307.197 15.4727C307.197 15.0703 307.135 14.7148 307.01 14.4062C306.885 14.0977 306.697 13.8574 306.447 13.6855C306.201 13.5098 305.895 13.4219 305.527 13.4219C305.16 13.4219 304.846 13.5098 304.584 13.6855C304.326 13.8613 304.129 14.0938 303.992 14.3828C303.855 14.6719 303.787 14.9883 303.787 15.332V15.9824C303.787 16.4316 303.865 16.8125 304.021 17.125C304.178 17.4375 304.395 17.6758 304.672 17.8398C304.953 18.0039 305.279 18.0859 305.65 18.0859C305.893 18.0859 306.111 18.0508 306.307 17.9805C306.506 17.9102 306.678 17.8047 306.822 17.6641C306.967 17.5234 307.076 17.3496 307.15 17.1426L308.357 17.3711C308.26 17.7227 308.088 18.0312 307.842 18.2969C307.596 18.5625 307.285 18.7695 306.91 18.918C306.539 19.0625 306.115 19.1348 305.639 19.1348ZM309.336 19V12.4492H310.549V13.5273H310.637C310.773 13.1641 310.996 12.8809 311.305 12.6777C311.617 12.4707 311.988 12.3672 312.418 12.3672C312.855 12.3672 313.221 12.4707 313.514 12.6777C313.811 12.8809 314.031 13.1641 314.176 13.5273H314.246C314.402 13.1719 314.65 12.8906 314.99 12.6836C315.33 12.4727 315.734 12.3672 316.203 12.3672C316.797 12.3672 317.283 12.5547 317.662 12.9297C318.041 13.3008 318.23 13.8613 318.23 14.6113V19H316.953V14.7285C316.953 14.2832 316.832 13.9629 316.59 13.7676C316.348 13.5684 316.059 13.4688 315.723 13.4688C315.309 13.4688 314.986 13.5977 314.756 13.8555C314.529 14.1094 314.416 14.4316 314.416 14.8223V19H313.139V14.6465C313.139 14.291 313.029 14.0059 312.811 13.791C312.592 13.5762 312.305 13.4688 311.949 13.4688C311.707 13.4688 311.482 13.5332 311.275 13.6621C311.072 13.7871 310.908 13.9629 310.783 14.1895C310.662 14.4121 310.602 14.6699 310.602 14.9629V19H309.336ZM322.268 19.1348C321.627 19.1348 321.072 18.9961 320.604 18.7188C320.135 18.4414 319.773 18.0508 319.52 17.5469C319.27 17.0391 319.145 16.4473 319.145 15.7715C319.145 15.0996 319.268 14.5078 319.514 13.9961C319.764 13.4844 320.113 13.0859 320.562 12.8008C321.016 12.5117 321.547 12.3672 322.156 12.3672C322.527 12.3672 322.887 12.4277 323.234 12.5488C323.582 12.6699 323.895 12.8613 324.172 13.123C324.449 13.3848 324.668 13.7246 324.828 14.1426C324.992 14.5605 325.074 15.0645 325.074 15.6543V16.1113H319.865V15.1562H324.418L323.826 15.4727C323.826 15.0703 323.764 14.7148 323.639 14.4062C323.514 14.0977 323.326 13.8574 323.076 13.6855C322.83 13.5098 322.523 13.4219 322.156 13.4219C321.789 13.4219 321.475 13.5098 321.213 13.6855C320.955 13.8613 320.758 14.0938 320.621 14.3828C320.484 14.6719 320.416 14.9883 320.416 15.332V15.9824C320.416 16.4316 320.494 16.8125 320.65 17.125C320.807 17.4375 321.023 17.6758 321.301 17.8398C321.582 18.0039 321.908 18.0859 322.279 18.0859C322.521 18.0859 322.74 18.0508 322.936 17.9805C323.135 17.9102 323.307 17.8047 323.451 17.6641C323.596 17.5234 323.705 17.3496 323.779 17.1426L324.986 17.3711C324.889 17.7227 324.717 18.0312 324.471 18.2969C324.225 18.5625 323.914 18.7695 323.539 18.918C323.168 19.0625 322.744 19.1348 322.268 19.1348ZM327.23 15.1152V19H325.965V12.4492H327.195V13.5273H327.283C327.432 13.1719 327.664 12.8906 327.98 12.6836C328.297 12.4727 328.703 12.3672 329.199 12.3672C329.645 12.3672 330.033 12.4609 330.365 12.6484C330.701 12.832 330.961 13.1074 331.145 13.4746C331.332 13.8418 331.426 14.2969 331.426 14.8398V19H330.16V14.9922C330.16 14.5195 330.035 14.1484 329.785 13.8789C329.535 13.6055 329.195 13.4688 328.766 13.4688C328.473 13.4688 328.209 13.5352 327.975 13.668C327.744 13.7969 327.562 13.9824 327.43 14.2246C327.297 14.4668 327.23 14.7637 327.23 15.1152ZM335.691 12.4492V13.4746H332.117V12.4492H335.691ZM333.072 10.8906H334.344V17.0781C334.344 17.3789 334.406 17.5996 334.531 17.7402C334.656 17.877 334.857 17.9453 335.135 17.9453C335.201 17.9453 335.271 17.9414 335.346 17.9336C335.424 17.9258 335.502 17.9141 335.58 17.8984L335.82 18.9531C335.691 18.9961 335.551 19.0293 335.398 19.0527C335.246 19.0762 335.094 19.0879 334.941 19.0879C334.375 19.0879 333.922 18.9297 333.582 18.6133C333.242 18.293 333.072 17.8672 333.072 17.3359V10.8906Z" fill="#1B191B"/>
<path d="M251 21.3848H335.99V22.2051H251V21.3848Z" fill="#1B191B"/>
</g>
</svg>
