<svg width="24" height="25" viewBox="0 0 24 25" fill="none" xmlns="http://www.w3.org/2000/svg">
<path d="M20.1 11.6961V9.61315C20.1 9.12813 19.9104 8.66298 19.5728 8.32003C19.2352 7.97707 18.7774 7.7844 18.3 7.7844H17.5035L14.4192 3.84528C14.2705 3.6554 14.0536 3.53331 13.8163 3.50587C13.579 3.47843 13.3407 3.5479 13.1538 3.69898C12.9669 3.85006 12.8467 4.07039 12.8197 4.31148C12.7927 4.55258 12.8611 4.79471 13.0098 4.98459L15.2022 7.7844H13.9035L10.8192 3.84528C10.7436 3.74945 10.6498 3.66999 10.5435 3.61157C10.4371 3.55315 10.3203 3.51696 10.2 3.50513C9.95839 3.48301 9.71797 3.55894 9.5313 3.71635L4.7856 7.7844C4.31071 7.78826 3.85656 7.98263 3.52211 8.32517C3.18765 8.66771 2.99998 9.13066 3 9.61315V19.6713C3 20.1563 3.18964 20.6214 3.52721 20.9644C3.86477 21.3073 4.32261 21.5 4.8 21.5H18.3C18.7774 21.5 19.2352 21.3073 19.5728 20.9644C19.9104 20.6214 20.1 20.1563 20.1 19.6713V17.5883C20.3727 17.4291 20.5995 17.1998 20.7574 16.9234C20.9154 16.6471 20.9991 16.3333 21 16.0138V13.2706C20.9991 12.9511 20.9154 12.6373 20.7574 12.361C20.5995 12.0846 20.3727 11.8553 20.1 11.6961ZM19.2 13.2706V16.0138H14.7C14.4613 16.0138 14.2324 15.9174 14.0636 15.7459C13.8948 15.5745 13.8 15.3419 13.8 15.0994V14.185C13.8 13.9425 13.8948 13.7099 14.0636 13.5385C14.2324 13.367 14.4613 13.2706 14.7 13.2706H19.2ZM9.9867 5.72066L11.6031 7.7844H7.5792L9.9867 5.72066ZM4.8 19.6713V9.61315H18.3V11.4419H14.7C13.9839 11.4419 13.2972 11.7309 12.7908 12.2453C12.2845 12.7598 12 13.4575 12 14.185V15.0994C12 15.8269 12.2845 16.5246 12.7908 17.0391C13.2972 17.5535 13.9839 17.8425 14.7 17.8425H18.3V19.6713H4.8Z" fill="white"/>
<path d="M16.05 15.5566C16.5471 15.5566 16.95 15.1472 16.95 14.6422C16.95 14.1372 16.5471 13.7278 16.05 13.7278C15.5529 13.7278 15.15 14.1372 15.15 14.6422C15.15 15.1472 15.5529 15.5566 16.05 15.5566Z" fill="white"/>
</svg>
